#!OML:ASF F:\VICON\USERDATA\INSTALL\Justin_Nancy\Justin_Nancy.ASF
:FULLY-SPECIFIED
:DEGREES
501
root 11.2515 17.6128 30.537 -2.74096 34.4487 -3.4444
lowerback 8.399 0.236525 1.95532
upperback 0.309891 0.680518 3.37179
thorax -4.41283 0.340787 2.32268
lowerneck -15.6362 -3.31916 -9.36687
upperneck 23.6075 -3.11658 4.1526
head 10.3648 -1.74691 2.63639
rclavicle 4.04527e-014 -2.70347e-014
rhumerus -34.7838 -16.8111 -75.413
rradius 31.5137
rwrist 7.37106
rhand -12.715 12.8609
rfingers 7.12502
rthumb 13.3679 -16.6903
lclavicle 4.04527e-014 -2.70347e-014
lhumerus -34.1537 12.2488 83.9453
lradius 26.2836
lwrist -12.4408
lhand -16.1184 18.6053
lfingers 7.12502
lthumb 10.0859 48.3436
rfemur -6.95458 6.01652 28.8282
rtibia 17.8462
rfoot -4.8594 -5.33589
rtoes 11.8489
lfemur -24.5698 2.30989 -15.8409
ltibia 70.7242
lfoot 4.14661 -4.38486
ltoes 7.5224
502
root 11.3184 17.5899 30.6458 -3.08729 34.0063 -4.12677
lowerback 8.4192 0.4598 2.59872
upperback 0.331573 1.04424 3.43655
thorax -4.40161 0.509062 1.98394
lowerneck -14.4105 -3.29386 -8.04271
upperneck 22.3756 -3.21955 2.91803
head 9.65163 -1.81438 1.96132
rclavicle -1.01181e-013 -9.54166e-015
rhumerus -33.1067 -16.5167 -75.6149
rradius 30.6298
rwrist 6.96245
rhand -12.5489 12.6631
rfingers 7.12502
rthumb 13.528 -16.8775
lclavicle -1.01181e-013 -9.54166e-015
lhumerus -34.2009 11.5769 84.2771
lradius 26.3838
lwrist -11.8506
lhand -15.9886 17.484
lfingers 7.12502
lthumb 10.2112 47.2162
rfemur -6.68611 6.25019 29.5505
rtibia 18.1297
rfoot -5.53601 -5.3968
rtoes 13.6455
lfemur -25.4514 2.44623 -15.0049
ltibia 70.4595
lfoot -1.94557 -5.06563
ltoes -8.30536
503
root 11.3761 17.5652 30.7526 -3.31585 34.0558 -4.61884
lowerback 8.42191 0.526839 2.99273
upperback 0.380622 1.1738 3.5019
thorax -4.34808 0.567026 1.81496
lowerneck -14.8416 -3.40515 -8.55679
upperneck 22.7336 -3.33121 3.41393
head 9.88601 -1.85512 2.2051
rclavicle -9.19379e-015 2.46493e-014
rhumerus -33.8255 -16.069 -75.8927
rradius 31.8318
rwrist 6.67346
rhand -12.612 12.8992
rfingers 7.12502
rthumb 13.4672 -16.6455
lclavicle -9.19379e-015 2.46493e-014
lhumerus -34.2167 11.3486 84.43
lradius 26.3342
lwrist -11.6605
lhand -15.953 16.6163
lfingers 7.12502
lthumb 10.2455 46.3468
rfemur -6.50193 6.36017 30.0923
rtibia 18.5433
rfoot -5.99371 -5.62012
rtoes 15.1928
lfemur -26.3907 2.16576 -14.5063
ltibia 69.8787
lfoot -1.78699 -4.60541
ltoes -3.41544
504
root 11.4698 17.5729 30.9015 -2.93432 34.6171 -3.31863
lowerback 8.14551 0.483597 1.99559
upperback 0.636455 0.978782 3.14187
thorax -3.93322 0.486558 2.02439
lowerneck -11.1671 -3.04191 -4.45421
upperneck 18.4645 -3.09624 -0.779381
head 7.59177 -1.828 0.182095
rclavicle 8.82604e-014 -1.19271e-014
rhumerus -33.4829 -15.3615 -76.2867
rradius 31.6936
rwrist 5.99708
rhand -13.3681 13.4457
rfingers 7.12502
rthumb 12.7383 -16.1457
lclavicle 8.82604e-014 -1.19271e-014
lhumerus -34.3637 11.1226 84.5402
lradius 26.3465
lwrist -11.4906
lhand -15.5627 17.414
lfingers 7.12502
lthumb 10.622 47.1256
rfemur -5.6698 5.56191 28.9769
rtibia 19.077
rfoot -6.82966 -5.27439
rtoes 16.2984
lfemur -26.2428 1.33344 -15.8725
ltibia 68.6195
lfoot -2.44273 -3.79419
ltoes -2.37488
505
root 11.5519 17.5639 31.0267 -2.97042 34.621 -3.00193
lowerback 8.23905 0.582194 1.85352
upperback 0.709786 1.09048 2.98947
thorax -3.91108 0.542686 1.93224
lowerneck -9.16572 -3.05587 -2.65539
upperneck 16.0692 -3.21182 -2.77499
head 6.39632 -1.90773 -0.705933
rclavicle 6.32135e-014 1.19271e-014
rhumerus -33.12 -14.6021 -76.6059
rradius 31.718
rwrist 5.24094
rhand -13.7282 13.8085
rfingers 7.12502
rthumb 12.3912 -15.8043
lclavicle 6.32135e-014 1.19271e-014
lhumerus -34.3828 11.9402 84.2002
lradius 25.8805
lwrist -12.7778
lhand -15.7553 15.8561
lfingers 7.12502
lthumb 10.4362 45.5771
rfemur -5.15065 5.08349 28.7538
rtibia 19.652
rfoot -7.73305 -4.91726
rtoes 16.1408
lfemur -26.4397 1.18713 -16.1928
ltibia 67.385
lfoot -3.18025 -3.09028
ltoes -1.01392
506
root 11.6272 17.5488 31.1335 -2.87609 34.567 -3.08391
lowerback 8.15773 0.642536 2.0768
upperback 0.682393 1.185 2.90947
thorax -3.88975 0.584987 1.71326
lowerneck -14.3064 -3.4287 -8.01695
upperneck 22.2976 -3.45317 3.05006
head 9.62001 -1.90494 1.97376
rclavicle 6.36111e-014 7.95139e-016
rhumerus -32.8789 -13.9102 -76.9444
rradius 32.2136
rwrist 5.13238
rhand -14.0041 13.5585
rfingers 7.12502
rthumb 12.1252 -16.0701
lclavicle 6.36111e-014 7.95139e-016
lhumerus -34.2532 13.0289 83.797
lradius 25.2396
lwrist -13.901
lhand -15.7296 15.6074
lfingers 7.12502
lthumb 10.461 45.3271
rfemur -5.10406 4.79695 28.8381
rtibia 20.208
rfoot -8.70678 -5.10597
rtoes 14.7406
lfemur -27.1663 1.11802 -16.1633
ltibia 66.0525
lfoot -3.76049 -2.49011
ltoes 0.0886728
507
root 11.7025 17.5284 31.2376 -2.65889 34.5931 -3.0278
lowerback 8.09218 0.671984 2.23274
upperback 0.593976 1.23287 2.79384
thorax -3.93974 0.604202 1.50046
lowerneck -15.0505 -3.48907 -8.82725
upperneck 23.0792 -3.44582 3.75865
head 10.0686 -1.89341 2.35857
rclavicle -3.86139e-014 -1.19271e-014
rhumerus -32.8089 -13.5966 -77.0999
rradius 32.839
rwrist 5.65802
rhand -13.7432 13.1345
rfingers 7.12502
rthumb 12.3767 -16.4791
lclavicle -3.86139e-014 -1.19271e-014
lhumerus -34.5681 12.5779 83.9615
lradius 25.4478
lwrist -13.1753
lhand -15.6181 17.6432
lfingers 7.12502
lthumb 10.5686 47.3574
rfemur -5.01213 4.58825 28.8111
rtibia 20.6326
rfoot -9.53455 -5.46174
rtoes 13.207
lfemur -27.9428 0.931564 -16.3261
ltibia 64.717
lfoot -4.42759 -1.74348
ltoes -0.919878
508
root 11.7728 17.5094 31.3509 -2.55797 34.4404 -2.83855
lowerback 8.37157 0.806516 2.2215
upperback 0.413238 1.41623 2.55941
thorax -4.28037 0.689496 1.23798
lowerneck -14.8186 -3.48121 -8.54763
upperneck 23.1235 -3.51968 3.72752
head 10.0379 -1.90836 2.2938
rclavicle 2.31087e-014 1.19271e-014
rhumerus -33.089 -13.3679 -77.3755
rradius 33.4734
rwrist 5.60873
rhand -13.7828 13.3948
rfingers 7.12502
rthumb 12.3385 -16.2211
lclavicle 2.31087e-014 1.19271e-014
lhumerus -35.0803 11.2841 84.2265
lradius 25.9042
lwrist -11.9585
lhand -15.6567 19.3282
lfingers 7.12502
lthumb 10.5314 49.0443
rfemur -4.63114 4.72773 28.745
rtibia 20.9542
rfoot -10.2163 -5.61304
rtoes 13.3759
lfemur -28.3925 0.8221 -16.5143
ltibia 63.2579
lfoot -4.68625 -0.824652
ltoes -1.4131
509
root 11.8361 17.4912 31.4713 -2.73272 34.1626 -3.0439
lowerback 8.53319 0.977006 2.30863
upperback 0.380366 1.65868 2.54887
thorax -4.40415 0.806623 1.14638
lowerneck -14.2754 -3.46325 -8.14096
upperneck 22.7154 -3.57292 3.45685
head 9.77837 -1.9286 2.12524
rclavicle 1.16239e-013 -2.78299e-014
rhumerus -32.9861 -12.9179 -77.6125
rradius 33.8612
rwrist 5.17667
rhand -13.9288 13.9176
rfingers 7.12502
rthumb 12.1977 -15.7067
lclavicle 1.16239e-013 -2.78299e-014
lhumerus -35.2124 11.2178 84.2587
lradius 25.8366
lwrist -12.0497
lhand -15.8128 19.9592
lfingers 7.12502
lthumb 10.3807 49.6829
rfemur -4.16701 5.19086 29.1204
rtibia 21.1833
rfoot -10.67 -5.97395
rtoes 13.6422
lfemur -28.7129 0.819664 -16.2281
ltibia 61.6912
lfoot -4.65056 0.218829
ltoes -1.33415
510
root 11.9044 17.4686 31.588 -2.88853 33.907 -3.38236
lowerback 8.46216 1.10569 2.51857
upperback 0.442098 1.84915 2.62323
thorax -4.29692 0.898902 1.08465
lowerneck -14.3548 -3.54954 -8.4995
upperneck 22.7742 -3.67548 3.76909
head 9.83515 -1.97176 2.28117
rclavicle -4.5472e-014 4.77083e-015
rhumerus -32.5855 -12.3879 -77.7805
rradius 34.1774
rwrist 4.65188
rhand -13.8725 14.3885
rfingers 7.12502
rthumb 12.252 -15.2326
lclavicle -4.5472e-014 4.77083e-015
lhumerus -35.2625 11.3195 84.3175
lradius 25.7845
lwrist -12.1668
lhand -15.9601 19.9851
lfingers 7.12502
lthumb 10.2386 49.7159
rfemur -3.71257 5.57428 29.5593
rtibia 21.2625
rfoot -11.1814 -6.22045
rtoes 14.0169
lfemur -29.0496 0.814363 -15.8474
ltibia 59.9988
lfoot -4.95606 1.18721
ltoes -1.49419
511
root 11.9846 17.4546 31.6994 -2.72977 33.8734 -3.51381
lowerback 8.17203 1.14537 2.77356
upperback 0.44675 1.91026 2.5791
thorax -4.11972 0.925491 0.894659
lowerneck -14.3881 -3.5612 -8.53456
upperneck 22.6586 -3.67969 3.77054
head 9.80159 -1.9754 2.28549
rclavicle 6.21202e-015 2.8625e-014
rhumerus -32.302 -11.7434 -78.0598
rradius 34.6297
rwrist 3.5873
rhand -14.23 14.7954
rfingers 7.12502
rthumb 11.9073 -14.846
lclavicle 6.21202e-015 2.8625e-014
lhumerus -35.267 11.7005 84.1248
lradius 25.6547
lwrist -12.6872
lhand -15.8449 17.4608
lfingers 7.12502
lthumb 10.3498 47.1861
rfemur -3.43227 5.32177 29.6758
rtibia 21.2623
rfoot -11.6823 -6.09989
rtoes 13.4045
lfemur -29.5446 0.717749 -15.7473
ltibia 58.1638
lfoot -5.4155 2.14447
ltoes -1.54669
512
root 12.0629 17.4464 31.812 -2.50014 33.7824 -3.45726
lowerback 7.94422 1.27062 2.80726
upperback 0.478298 2.06679 2.55647
thorax -3.95661 1.00402 0.839999
lowerneck -14.7773 -3.47776 -8.42942
upperneck 22.751 -3.51199 3.59705
head 9.8914 -1.90584 2.22576
rclavicle -4.21423e-014 -5.56597e-015
rhumerus -32.064 -11.2773 -78.1859
rradius 35.1221
rwrist 2.71718
rhand -14.8135 15.0364
rfingers 7.12502
rthumb 11.3446 -14.6367
lclavicle -4.21423e-014 -5.56597e-015
lhumerus -35.1244 12.0921 84.1455
lradius 25.553
lwrist -13.0054
lhand -15.0501 17.0314
lfingers 7.12502
lthumb 11.1164 46.7169
rfemur -3.06351 5.14072 29.6242
rtibia 21.149
rfoot -12.0775 -5.91466
rtoes 13.3916
lfemur -29.883 0.759491 -15.7999
ltibia 56.1604
lfoot -5.6609 3.04711
ltoes -1.47415
513
root 12.1349 17.433 31.9245 -2.27793 33.6825 -3.43995
lowerback 7.83628 1.3919 2.79384
upperback 0.430533 2.22442 2.57595
thorax -3.94642 1.08242 0.852402
lowerneck -15.4882 -3.3767 -8.50942
upperneck 23.1952 -3.25755 3.47962
head 10.1691 -1.80765 2.2292
rclavicle -3.28492e-014 6.36111e-015
rhumerus -31.8408 -10.8061 -78.1904
rradius 35.5113
rwrist 2.62698
rhand -14.8931 14.8285
rfingers 7.12502
rthumb 11.2678 -14.8489
lclavicle -3.28492e-014 6.36111e-015
lhumerus -35.2453 11.8923 84.414
lradius 25.7065
lwrist -12.5728
lhand -14.6259 19.2239
lfingers 7.12502
lthumb 11.5256 48.8871
rfemur -2.67101 5.16889 29.6436
rtibia 20.857
rfoot -12.356 -5.8959
rtoes 13.6416
lfemur -30.1987 0.647791 -15.78
ltibia 54.0062
lfoot -5.90863 3.83952
ltoes -0.757104
514
root 12.2069 17.4212 32.0383 -2.1651 33.644 -3.5753
lowerback 7.7875 1.4489 2.90515
upperback 0.316518 2.31108 2.55654
thorax -4.03218 1.12149 0.760406
lowerneck -15.6027 -3.32026 -8.29749
upperneck 23.2427 -3.17936 3.30363
head 10.1955 -1.77297 2.14131
rclavicle -3.0911e-014 1.59028e-015
rhumerus -31.7499 -10.5165 -78.2312
rradius 35.9892
rwrist 3.03045
rhand -14.295 14.4498
rfingers 7.12502
rthumb 11.8447 -15.1952
lclavicle -3.0911e-014 1.59028e-015
lhumerus -35.5178 12.3907 84.0898
lradius 25.4264
lwrist -13.0375
lhand -14.6192 18.5485
lfingers 7.12502
lthumb 11.532 48.2113
rfemur -2.13034 5.47063 29.8503
rtibia 20.4251
rfoot -12.5448 -6.21932
rtoes 13.7855
lfemur -30.4467 0.240702 -15.6031
ltibia 51.6903
lfoot -6.16426 4.5772
ltoes -1.56798
515
root 12.2771 17.4194 32.1558 -2.21062 33.5602 -3.76587
lowerback 7.84771 1.48841 3.087
upperback 0.248171 2.38191 2.48475
thorax -4.12624 1.15063 0.574
lowerneck -14.8776 -3.5952 -8.83709
upperneck 22.9918 -3.65794 3.97253
head 10.0229 -1.96695 2.40864
rclavicle 7.69297e-014 9.54166e-015
rhumerus -31.5934 -10.4351 -78.4198
rradius 36.3585
rwrist 3.25277
rhand -13.9388 14.337
rfingers 7.12502
rthumb 12.1881 -15.2879
lclavicle 7.69297e-014 9.54166e-015
lhumerus -35.5346 13.4837 83.4419
lradius 24.8458
lwrist -14.0171
lhand -14.7226 17.793
lfingers 7.12502
lthumb 11.4323 47.4613
rfemur -1.3714 5.83161 30.1651
rtibia 19.8748
rfoot -12.6694 -6.61244
rtoes 13.5295
lfemur -30.425 0.00854698 -15.3582
ltibia 49.2491
lfoot -6.31946 5.30949
ltoes -2.43297
